<svg width="68" height="68" viewBox="0 0 68 68" fill="none" xmlns="http://www.w3.org/2000/svg">
<g opacity="0.5">
<circle cx="26" cy="26" r="42" fill="#FFA229"/>
<path fill-rule="evenodd" clip-rule="evenodd" d="M28.5257 10.5491C27.4033 8.60363 24.5954 8.60363 23.473 10.5491L6.31289 40.2933C5.1911 42.2378 6.59443 44.6675 8.83927 44.6675H43.1595C45.4043 44.6675 46.8076 42.2378 45.6858 40.2933L28.5257 10.5491ZM19.4308 8.21711C22.3491 3.15875 29.6497 3.15875 32.5679 8.21711L49.728 37.9613C52.6447 43.0168 48.996 49.3342 43.1595 49.3342H8.83927C3.00269 49.3342 -0.645972 43.0168 2.27069 37.9613L19.4308 8.21711ZM25.9994 20.1675C27.288 20.1675 28.3327 21.2122 28.3327 22.5008V31.2508C28.3327 32.5395 27.288 33.5842 25.9994 33.5842C24.7107 33.5842 23.666 32.5395 23.666 31.2508V22.5008C23.666 21.2122 24.7107 20.1675 25.9994 20.1675ZM23.666 38.2508C23.666 36.9622 24.7107 35.9175 25.9994 35.9175H26.0169C27.3055 35.9175 28.3502 36.9622 28.3502 38.2508V38.2683C28.3502 39.557 27.3055 40.6017 26.0169 40.6017H25.9994C24.7107 40.6017 23.666 39.557 23.666 38.2683V38.2508Z" fill="white"/>
</g>
</svg>
