<svg width="14" height="18" viewBox="0 0 14 18" fill="none" xmlns="http://www.w3.org/2000/svg">
<path fill-rule="evenodd" clip-rule="evenodd" d="M6.99988 2.4375C5.86079 2.4375 4.93738 3.36091 4.93738 4.5C4.93738 5.63909 5.86079 6.5625 6.99988 6.5625C8.13897 6.5625 9.06238 5.63909 9.06238 4.5C9.06238 3.36091 8.13897 2.4375 6.99988 2.4375ZM3.43738 4.5C3.43738 2.53249 5.03237 0.9375 6.99988 0.9375C8.9674 0.9375 10.5624 2.53249 10.5624 4.5C10.5624 6.46751 8.9674 8.0625 6.99988 8.0625C5.03237 8.0625 3.43738 6.46751 3.43738 4.5ZM2.15855 14.6113C3.65053 15.2242 5.28499 15.5625 7.00012 15.5625C8.71508 15.5625 10.3494 15.2243 11.8412 14.6115C11.5564 12.1907 9.49739 10.3125 6.99988 10.3125C4.50243 10.3125 2.44351 12.1906 2.15855 14.6113ZM0.625844 15.0758C0.685608 11.6063 3.5164 8.8125 6.99988 8.8125C10.4834 8.8125 13.3143 11.6065 13.3739 15.076C13.379 15.3738 13.2075 15.6464 12.9368 15.7706C11.1286 16.6003 9.1173 17.0625 7.00012 17.0625C4.88274 17.0625 2.87129 16.6002 1.06292 15.7703C0.79225 15.6461 0.620715 15.3735 0.625844 15.0758Z" fill="white"/>
</svg>
