<svg width="14" height="14" viewBox="0 0 14 14" fill="none" xmlns="http://www.w3.org/2000/svg">
<path fill-rule="evenodd" clip-rule="evenodd" d="M3.50016 0.333496C3.86835 0.333496 4.16683 0.631973 4.16683 1.00016V1.8335H9.8335V1.00016C9.8335 0.631973 10.132 0.333496 10.5002 0.333496C10.8684 0.333496 11.1668 0.631973 11.1668 1.00016V1.8335H11.5002C12.6968 1.8335 13.6668 2.80355 13.6668 4.00016V11.5002C13.6668 12.6968 12.6968 13.6668 11.5002 13.6668H2.50016C1.30355 13.6668 0.333496 12.6968 0.333496 11.5002V4.00016C0.333496 2.80355 1.30355 1.8335 2.50016 1.8335H2.8335V1.00016C2.8335 0.631973 3.13197 0.333496 3.50016 0.333496ZM2.50016 3.16683C2.03993 3.16683 1.66683 3.53993 1.66683 4.00016V4.49955C1.92336 4.39257 2.20486 4.3335 2.50016 4.3335H11.5002C11.7955 4.3335 12.077 4.39257 12.3335 4.49955V4.00016C12.3335 3.53993 11.9604 3.16683 11.5002 3.16683H2.50016ZM12.3335 6.50016C12.3335 6.03993 11.9604 5.66683 11.5002 5.66683H2.50016C2.03993 5.66683 1.66683 6.03993 1.66683 6.50016V11.5002C1.66683 11.9604 2.03993 12.3335 2.50016 12.3335H11.5002C11.9604 12.3335 12.3335 11.9604 12.3335 11.5002V6.50016Z" fill="#2671D9"/>
</svg>
