<svg width="18" height="16" viewBox="0 0 18 16" fill="none" xmlns="http://www.w3.org/2000/svg">
<path fill-rule="evenodd" clip-rule="evenodd" d="M0.9375 1.25C0.9375 0.835786 1.27329 0.5 1.6875 0.5H16.3125C16.7267 0.5 17.0625 0.835786 17.0625 1.25C17.0625 1.66421 16.7267 2 16.3125 2H15.9375V9.6875C15.9375 11.0337 14.8462 12.125 13.5 12.125H12.8531L13.649 14.5128C13.78 14.9058 13.5676 15.3305 13.1747 15.4615C12.7817 15.5925 12.357 15.3801 12.226 14.9872L12.0219 14.375H5.97807L5.77401 14.9872C5.64303 15.3801 5.21829 15.5925 4.82533 15.4615C4.43237 15.3305 4.22 14.9058 4.35099 14.5128L5.14693 12.125H4.5C3.15381 12.125 2.0625 11.0337 2.0625 9.6875V2H1.6875C1.27329 2 0.9375 1.66421 0.9375 1.25ZM3.5625 2V9.6875C3.5625 10.2053 3.98223 10.625 4.5 10.625H13.5C14.0178 10.625 14.4375 10.2053 14.4375 9.6875V2H3.5625ZM6.72807 12.125L6.47807 12.875H11.5219L11.2719 12.125H6.72807ZM11.25 3.3125C11.6642 3.3125 12 3.64829 12 4.0625V8.5625C12 8.97671 11.6642 9.3125 11.25 9.3125C10.8358 9.3125 10.5 8.97671 10.5 8.5625V4.0625C10.5 3.64829 10.8358 3.3125 11.25 3.3125ZM9 5C9.41421 5 9.75 5.33579 9.75 5.75V8.5625C9.75 8.97671 9.41421 9.3125 9 9.3125C8.58579 9.3125 8.25 8.97671 8.25 8.5625V5.75C8.25 5.33579 8.58579 5 9 5ZM6.75 6.6875C7.16421 6.6875 7.5 7.02329 7.5 7.4375V8.5625C7.5 8.97671 7.16421 9.3125 6.75 9.3125C6.33579 9.3125 6 8.97671 6 8.5625V7.4375C6 7.02329 6.33579 6.6875 6.75 6.6875Z" fill="white"/>
</svg>
