<svg width="39" height="40" viewBox="0 0 39 40" fill="none" xmlns="http://www.w3.org/2000/svg">
<ellipse cx="19.5176" cy="20.0001" rx="19.4824" ry="19.6417" fill="white"/>
<path d="M30 16C30 12 28 10 24 10H16C12 10 10 12 10 16V29C10 29.55 10.45 30 11 30H24C28 30 30 28 30 24V20" stroke="#FFA229" stroke-width="1.5" stroke-linecap="round" stroke-linejoin="round"/>
<path d="M23.5098 19.7399L24.1598 19.0899C24.1998 19.0499 24.2398 19.0099 24.2798 18.9599C25.0898 18.0999 25.4098 17.0899 24.1598 15.8399C22.8398 14.5199 21.7998 14.9499 20.9098 15.8399L15.7198 21.0299C15.5198 21.2299 15.3298 21.6199 15.2898 21.8999L15.0098 23.8799C14.9098 24.5999 15.4098 25.0999 16.1298 24.9999L18.1098 24.7199C18.3898 24.6799 18.7798 24.4899 18.9798 24.2899L20.9198 22.3499" stroke="#FFA229" stroke-width="1.5" stroke-miterlimit="10" stroke-linecap="round" stroke-linejoin="round"/>
<path d="M20.1699 16.5801C20.6099 18.1501 21.8399 19.3901 23.4199 19.8301" stroke="#FFA229" stroke-width="1.5" stroke-miterlimit="10" stroke-linecap="round" stroke-linejoin="round"/>
</svg>
