<svg width="200" height="160" viewBox="0 0 200 160" fill="none" xmlns="http://www.w3.org/2000/svg">
<ellipse cx="97.9862" cy="82.5063" rx="60.7225" ry="58.5982" fill="#D3D3D3" fill-opacity="0.2"/>
<ellipse cx="97.9862" cy="82.5063" rx="48.578" ry="46.8786" fill="#CCCCCC"/>
<path fill-rule="evenodd" clip-rule="evenodd" d="M49.6564 33.7143C50.4777 33.7143 51.1435 33.0718 51.1435 32.2792C51.1435 31.4866 50.4777 30.8441 49.6564 30.8441C48.8351 30.8441 48.1693 31.4866 48.1693 32.2792C48.1693 33.0718 48.8351 33.7143 49.6564 33.7143ZM49.6564 34.4318C50.8883 34.4318 51.887 33.468 51.887 32.2792C51.887 31.0903 50.8883 30.1266 49.6564 30.1266C48.4245 30.1266 47.4258 31.0903 47.4258 32.2792C47.4258 33.468 48.4245 34.4318 49.6564 34.4318Z" fill="#CCCCCC"/>
<path fill-rule="evenodd" clip-rule="evenodd" d="M32.5548 78.9187C33.3761 78.9187 34.0419 78.2762 34.0419 77.4836C34.0419 76.6911 33.3761 76.0486 32.5548 76.0486C31.7335 76.0486 31.0678 76.6911 31.0678 77.4836C31.0678 78.2762 31.7335 78.9187 32.5548 78.9187ZM32.5548 79.6362C33.7868 79.6362 34.7855 78.6724 34.7855 77.4836C34.7855 76.2948 33.7868 75.331 32.5548 75.331C31.3229 75.331 30.3242 76.2948 30.3242 77.4836C30.3242 78.6724 31.3229 79.6362 32.5548 79.6362Z" fill="#CCCCCC"/>
<path fill-rule="evenodd" clip-rule="evenodd" d="M8.89078 87.0315C9.71207 87.0315 10.3779 86.389 10.3779 85.5965C10.3779 84.8039 9.71207 84.1614 8.89078 84.1614C8.06949 84.1614 7.4037 84.8039 7.4037 85.5965C7.4037 86.389 8.06949 87.0315 8.89078 87.0315ZM8.89078 87.7491C10.1227 87.7491 11.1214 86.7853 11.1214 85.5965C11.1214 84.4077 10.1227 83.4439 8.89078 83.4439C7.65884 83.4439 6.66016 84.4077 6.66016 85.5965C6.66016 86.7853 7.65884 87.7491 8.89078 87.7491Z" fill="#CCCCCC"/>
<path fill-rule="evenodd" clip-rule="evenodd" d="M73.4501 22.9513C75.0927 22.9513 76.4243 21.6663 76.4243 20.0812C76.4243 18.4961 75.0927 17.2111 73.4501 17.2111C71.8075 17.2111 70.476 18.4961 70.476 20.0812C70.476 21.6663 71.8075 22.9513 73.4501 22.9513ZM73.4501 23.6689C75.5034 23.6689 77.1678 22.0626 77.1678 20.0812C77.1678 18.0998 75.5034 16.4936 73.4501 16.4936C71.3969 16.4936 69.7324 18.0998 69.7324 20.0812C69.7324 22.0626 71.3969 23.6689 73.4501 23.6689Z" fill="#CCCCCC"/>
<path fill-rule="evenodd" clip-rule="evenodd" d="M36.2716 119.818C37.0929 119.818 37.7587 119.175 37.7587 118.383C37.7587 117.59 37.0929 116.948 36.2716 116.948C35.4503 116.948 34.7846 117.59 34.7846 118.383C34.7846 119.175 35.4503 119.818 36.2716 119.818ZM36.2716 120.535C37.5036 120.535 38.5023 119.572 38.5023 118.383C38.5023 117.194 37.5036 116.23 36.2716 116.23C35.0397 116.23 34.041 117.194 34.041 118.383C34.041 119.572 35.0397 120.535 36.2716 120.535Z" fill="#CCCCCC"/>
<path fill-rule="evenodd" clip-rule="evenodd" d="M37.7587 24.3864C39.4013 24.3864 40.7329 23.1014 40.7329 21.5163C40.7329 19.9312 39.4013 18.6462 37.7587 18.6462C36.1161 18.6462 34.7846 19.9312 34.7846 21.5163C34.7846 23.1014 36.1161 24.3864 37.7587 24.3864ZM37.7587 25.104C39.812 25.104 41.4764 23.4977 41.4764 21.5163C41.4764 19.5349 39.812 17.9287 37.7587 17.9287C35.7055 17.9287 34.041 19.5349 34.041 21.5163C34.041 23.4977 35.7055 25.104 37.7587 25.104Z" fill="#CCCCCC"/>
<path fill-rule="evenodd" clip-rule="evenodd" d="M15.2353 50.5237C16.8779 50.5237 18.2095 49.2387 18.2095 47.6535C18.2095 46.0684 16.8779 44.7834 15.2353 44.7834C13.5927 44.7834 12.2611 46.0684 12.2611 47.6535C12.2611 49.2387 13.5927 50.5237 15.2353 50.5237ZM15.2353 51.2412C17.2885 51.2412 18.953 49.6349 18.953 47.6535C18.953 45.6721 17.2885 44.0659 15.2353 44.0659C13.1821 44.0659 11.5176 45.6721 11.5176 47.6535C11.5176 49.6349 13.1821 51.2412 15.2353 51.2412Z" fill="#CCCCCC"/>
<path fill-rule="evenodd" clip-rule="evenodd" d="M122.522 24.3864C124.165 24.3864 125.497 23.1014 125.497 21.5163C125.497 19.9312 124.165 18.6462 122.522 18.6462C120.88 18.6462 119.548 19.9312 119.548 21.5163C119.548 23.1014 120.88 24.3864 122.522 24.3864ZM122.522 25.104C124.576 25.104 126.24 23.4977 126.24 21.5163C126.24 19.5349 124.576 17.9287 122.522 17.9287C120.469 17.9287 118.805 19.5349 118.805 21.5163C118.805 23.4977 120.469 25.104 122.522 25.104Z" fill="#CCCCCC"/>
<path fill-rule="evenodd" clip-rule="evenodd" d="M158.956 50.935C160.599 50.935 161.93 49.65 161.93 48.0649C161.93 46.4797 160.599 45.1947 158.956 45.1947C157.313 45.1947 155.982 46.4797 155.982 48.0649C155.982 49.65 157.313 50.935 158.956 50.935ZM158.956 51.6525C161.009 51.6525 162.674 50.0463 162.674 48.0649C162.674 46.0835 161.009 44.4772 158.956 44.4772C156.903 44.4772 155.238 46.0835 155.238 48.0649C155.238 50.0463 156.903 51.6525 158.956 51.6525Z" fill="#CCCCCC"/>
<path fill-rule="evenodd" clip-rule="evenodd" d="M156.11 22.3965C157.753 22.3965 159.084 21.1115 159.084 19.5264C159.084 17.9413 157.753 16.6563 156.11 16.6563C154.468 16.6563 153.136 17.9413 153.136 19.5264C153.136 21.1115 154.468 22.3965 156.11 22.3965ZM156.11 23.114C158.164 23.114 159.828 21.5078 159.828 19.5264C159.828 17.545 158.164 15.9387 156.11 15.9387C154.057 15.9387 152.393 17.545 152.393 19.5264C152.393 21.5078 154.057 23.114 156.11 23.114Z" fill="#CCCCCC"/>
<ellipse cx="139.625" cy="134.886" rx="2.23063" ry="2.15258" fill="#CCCCCC"/>
<ellipse cx="168.227" cy="141.851" rx="2.23064" ry="2.15257" fill="#CCCCCC"/>
<path fill-rule="evenodd" clip-rule="evenodd" d="M112.856 148.519C114.499 148.519 115.831 147.234 115.831 145.649C115.831 144.064 114.499 142.779 112.856 142.779C111.214 142.779 109.882 144.064 109.882 145.649C109.882 147.234 111.214 148.519 112.856 148.519ZM112.856 149.237C114.91 149.237 116.574 147.63 116.574 145.649C116.574 143.668 114.91 142.061 112.856 142.061C110.803 142.061 109.139 143.668 109.139 145.649C109.139 147.63 110.803 149.237 112.856 149.237Z" fill="#CCCCCC"/>
<path fill-rule="evenodd" clip-rule="evenodd" d="M33.2978 148.519C34.9404 148.519 36.2719 147.234 36.2719 145.649C36.2719 144.064 34.9404 142.779 33.2978 142.779C31.6552 142.779 30.3236 144.064 30.3236 145.649C30.3236 147.234 31.6552 148.519 33.2978 148.519ZM33.2978 149.237C35.351 149.237 37.0155 147.63 37.0155 145.649C37.0155 143.668 35.351 142.061 33.2978 142.061C31.2446 142.061 29.5801 143.668 29.5801 145.649C29.5801 147.63 31.2446 149.237 33.2978 149.237Z" fill="#CCCCCC"/>
<path fill-rule="evenodd" clip-rule="evenodd" d="M133.765 159.282C135.407 159.282 136.739 157.997 136.739 156.412C136.739 154.827 135.407 153.542 133.765 153.542C132.122 153.542 130.79 154.827 130.79 156.412C130.79 157.997 132.122 159.282 133.765 159.282ZM133.765 160C135.818 160 137.482 158.393 137.482 156.412C137.482 154.43 135.818 152.824 133.765 152.824C131.711 152.824 130.047 154.43 130.047 156.412C130.047 158.393 131.711 160 133.765 160Z" fill="#CCCCCC"/>
<ellipse cx="63.0392" cy="137.039" rx="2.23062" ry="2.1526" fill="#CCCCCC"/>
<ellipse cx="20.2621" cy="63.7549" rx="4.8578" ry="4.68786" fill="#CCCCCC"/>
<ellipse cx="113.532" cy="4.68786" rx="4.8578" ry="4.68786" fill="#CCCCCC"/>
<ellipse cx="25.1195" cy="102.195" rx="4.8578" ry="4.68786" fill="#CCCCCC"/>
<ellipse cx="54.266" cy="8.43815" rx="4.8578" ry="4.68786" fill="#CCCCCC"/>
<ellipse cx="143.649" cy="4.68786" rx="4.8578" ry="4.68786" fill="#CCCCCC"/>
<ellipse cx="177.655" cy="30.9399" rx="4.8578" ry="4.68786" fill="#CCCCCC"/>
<ellipse cx="195.143" cy="80.6312" rx="4.8578" ry="4.68786" fill="#CCCCCC"/>
<ellipse cx="175.711" cy="119.072" rx="4.8578" ry="4.68786" fill="#CCCCCC"/>
<path fill-rule="evenodd" clip-rule="evenodd" d="M36.1789 41.25L30.6023 44.357L36.1789 47.464L36.1789 41.25ZM35.4354 42.4928L32.0894 44.357L35.4354 46.2212L35.4354 42.4928Z" fill="#CCCCCC"/>
<path fill-rule="evenodd" clip-rule="evenodd" d="M3.48554 60.45L3.87176 66.6528L9.24518 63.2286L3.48554 60.45ZM4.30499 61.6475L4.53672 65.3692L7.76077 63.3147L4.30499 61.6475Z" fill="#CCCCCC"/>
<path fill-rule="evenodd" clip-rule="evenodd" d="M162.53 110.221L156.283 108.714L158.054 114.688L162.53 110.221ZM161.1 110.615L157.352 109.711L158.415 113.296L161.1 110.615Z" fill="#CCCCCC"/>
<path fill-rule="evenodd" clip-rule="evenodd" d="M193.37 104.821L195.559 98.9772L189.22 100.07L193.37 104.821ZM193.108 103.408L194.422 99.902L190.618 100.557L193.108 103.408Z" fill="#CCCCCC"/>
<path fill-rule="evenodd" clip-rule="evenodd" d="M96.4597 152.061L90.2127 150.554L91.9837 156.528L96.4597 152.061ZM95.03 152.456L91.2818 151.552L92.3444 155.136L95.03 152.456Z" fill="#CCCCCC"/>
<path fill-rule="evenodd" clip-rule="evenodd" d="M158.774 133.256L157.503 127.164L152.671 131.273L158.774 133.256ZM157.791 132.179L157.028 128.524L154.129 130.989L157.791 132.179Z" fill="#CCCCCC"/>
<path fill-rule="evenodd" clip-rule="evenodd" d="M142.866 35.2697L148.402 32.0963L142.786 29.0562L142.866 35.2697ZM143.593 34.0181L146.915 32.1141L143.546 30.29L143.593 34.0181Z" fill="#CCCCCC"/>
<path fill-rule="evenodd" clip-rule="evenodd" d="M43.9449 132.324L47.3912 137.573L50.3787 132.068L43.9449 132.324ZM45.2622 132.99L47.3301 136.139L49.1225 132.836L45.2622 132.99Z" fill="#CCCCCC"/>
<path fill-rule="evenodd" clip-rule="evenodd" d="M161.425 71.3339L164.872 76.583L167.859 71.0782L161.425 71.3339ZM162.743 71.9997L164.81 75.1492L166.603 71.8463L162.743 71.9997Z" fill="#CCCCCC"/>
<path fill-rule="evenodd" clip-rule="evenodd" d="M188.53 56.5204L194.841 55.2857L190.578 50.6289L188.53 56.5204ZM189.645 55.5702L193.431 54.8294L190.873 52.0353L189.645 55.5702Z" fill="#CCCCCC"/>
<path fill-rule="evenodd" clip-rule="evenodd" d="M92.4667 7.90306L97.6665 15.8229L102.174 7.5173L92.4667 7.90306ZM94.4543 8.90761L97.5742 13.6595L100.279 8.67615L94.4543 8.90761Z" fill="#CCCCCC"/>
<path fill-rule="evenodd" clip-rule="evenodd" d="M79.7763 144.536L78.7893 148.14L82.5177 147.163L79.7763 144.536ZM80.1662 145.92L79.8372 147.122L81.08 146.796L80.1662 145.92Z" fill="#CCCCCC"/>
<path d="M173.462 90.7172L172.953 98.8219L165.934 94.3439L173.462 90.7172Z" fill="#CCCCCC"/>
<path d="M177.655 62.8173L181.862 69.8491H173.448L177.655 62.8173Z" fill="#CCCCCC"/>
<path d="M9.14622 102.856L9.03179 110.975L1.80297 106.819L9.14622 102.856Z" fill="#CCCCCC"/>
<path d="M15.8071 125.443L23.9868 123.54L21.6044 131.328L15.8071 125.443Z" fill="#CCCCCC"/>
<path d="M92.7339 92.1627C91.1099 92.1627 89.7933 90.8461 89.7933 89.2221C89.7933 86.6788 90.3549 84.4668 91.4782 82.5858C92.6015 80.7049 94.6564 78.7047 97.6427 76.5854C100.519 74.5984 102.41 72.9824 103.314 71.7373C104.246 70.4922 104.711 69.1013 104.711 67.5648C104.711 65.8428 104.054 64.5315 102.739 63.6307C101.424 62.73 99.5879 62.2796 97.2317 62.2796C94.332 62.2796 91.1459 62.9259 87.6733 64.2184C85.1222 65.168 82.1779 64.2333 80.932 61.813C79.6902 59.4003 80.5949 56.4036 83.1128 55.3921C87.9055 53.4667 92.9131 52.504 98.1359 52.504C103.78 52.504 108.259 53.8154 111.574 56.4381C114.917 59.0608 116.588 62.5578 116.588 66.929C116.588 69.8431 115.903 72.3599 114.533 74.4792C113.163 76.5986 110.561 78.9829 106.725 81.6321C104.095 83.513 102.424 84.9436 101.711 85.9238C101.026 86.904 100.684 88.1889 100.684 89.7784C100.684 91.0952 99.6163 92.1627 98.2995 92.1627H92.7339ZM88.4782 105.753C88.4782 103.528 89.0947 101.846 90.3275 100.706C91.5604 99.5673 93.355 98.9977 95.7112 98.9977C97.9852 98.9977 99.7386 99.5805 100.972 100.746C102.232 101.912 102.862 103.581 102.862 105.753C102.862 107.846 102.232 109.502 100.972 110.72C99.7112 111.913 97.9578 112.509 95.7112 112.509C93.4098 112.509 91.6289 111.926 90.3686 110.76C89.1083 109.568 88.4782 107.899 88.4782 105.753Z" fill="white"/>
</svg>
