<svg width="11" height="13" viewBox="0 0 11 13" fill="none" xmlns="http://www.w3.org/2000/svg">
<path d="M10.4206 4.70885C10.4143 4.65309 10.4021 4.59817 10.3842 4.54499V4.49037C10.355 4.42797 10.3161 4.37061 10.2689 4.32044L6.62757 0.679135C6.5774 0.63193 6.52004 0.593007 6.45764 0.563827H6.40302C6.34137 0.528471 6.27328 0.505776 6.20275 0.49707H2.5311C2.04823 0.49707 1.58514 0.688889 1.24371 1.03033C0.902267 1.37177 0.710449 1.83486 0.710449 2.31772V10.8141C0.710449 11.297 0.902267 11.7601 1.24371 12.1015C1.58514 12.4429 2.04823 12.6348 2.5311 12.6348H8.59994C9.08281 12.6348 9.5459 12.4429 9.88734 12.1015C10.2288 11.7601 10.4206 11.297 10.4206 10.8141V4.74526V4.70885ZM6.77929 2.56654L8.35112 4.13837H7.38617C7.22522 4.13837 7.07085 4.07443 6.95704 3.96062C6.84323 3.84681 6.77929 3.69245 6.77929 3.53149V2.56654ZM9.20683 10.8141C9.20683 10.9751 9.14289 11.1294 9.02907 11.2432C8.91526 11.357 8.7609 11.421 8.59994 11.421H2.5311C2.37015 11.421 2.21578 11.357 2.10197 11.2432C1.98816 11.1294 1.92422 10.9751 1.92422 10.8141V2.31772C1.92422 2.15677 1.98816 2.0024 2.10197 1.88859C2.21578 1.77478 2.37015 1.71084 2.5311 1.71084H5.56552V3.53149C5.56552 4.01436 5.75734 4.47745 6.09878 4.81889C6.44022 5.16032 6.90331 5.35214 7.38617 5.35214H9.20683V10.8141Z" fill="#0EA976"/>
</svg>
