<svg width="16" height="17" viewBox="0 0 16 17" fill="none" xmlns="http://www.w3.org/2000/svg">
<path fill-rule="evenodd" clip-rule="evenodd" d="M7.9999 6.61348C6.95604 6.61348 6.11323 7.45629 6.11323 8.50015C6.11323 8.8404 6.20251 9.15781 6.36009 9.43285L8.93259 6.86034C8.65756 6.70277 8.34015 6.61348 7.9999 6.61348ZM5.11323 8.50015C5.11323 6.90401 6.40375 5.61348 7.9999 5.61348C8.79844 5.61348 9.51729 5.93711 10.0401 6.45993C10.2354 6.65519 10.2354 6.97177 10.0401 7.16704L6.66678 10.5404C6.47152 10.7356 6.15494 10.7356 5.95968 10.5404C5.43685 10.0175 5.11323 9.29869 5.11323 8.50015Z" fill="#2671D9"/>
<path fill-rule="evenodd" clip-rule="evenodd" d="M1.50489 6.50479C3.09884 3.99922 5.43458 2.48682 7.9999 2.48682C9.49965 2.48682 10.9369 3.00922 12.181 3.94764C12.4014 4.11393 12.4454 4.42745 12.2791 4.64791C12.1128 4.86837 11.7993 4.91228 11.5788 4.74599C10.4896 3.92441 9.26015 3.48682 7.9999 3.48682C5.85866 3.48682 3.80783 4.74762 2.34844 7.04185L2.34802 7.0425C2.11163 7.41285 1.97656 7.94298 1.97656 8.50348C1.97656 9.06399 2.11163 9.59412 2.34802 9.96447C2.85054 10.7532 3.43264 11.4288 4.05925 11.9677C4.26862 12.1478 4.29238 12.4635 4.11232 12.6728C3.93227 12.8822 3.61658 12.906 3.40721 12.7259C2.70049 12.1181 2.05569 11.3667 1.50487 10.5021C1.14142 9.93254 0.976562 9.20283 0.976562 8.50348C0.976562 7.80412 1.14143 7.0744 1.50489 6.50479Z" fill="#2671D9"/>
<path fill-rule="evenodd" clip-rule="evenodd" d="M13.0532 5.39721C13.2684 5.22414 13.5831 5.25826 13.7562 5.47344C14.0121 5.79162 14.2635 6.13352 14.4954 6.4989C14.8585 7.0684 15.0232 7.79777 15.0232 8.49682C15.0232 9.19618 14.8584 9.9259 14.4949 10.4955C12.901 13.0011 10.5652 14.5135 7.9999 14.5135C7.10887 14.5135 6.23645 14.3251 5.4192 13.981C5.1647 13.8738 5.04525 13.5806 5.15241 13.3261C5.25957 13.0716 5.55276 12.9522 5.80726 13.0593C6.51001 13.3552 7.25092 13.5135 7.9999 13.5135C10.1411 13.5135 12.192 12.2527 13.6514 9.95845L13.6518 9.9578C13.8882 9.58745 14.0232 9.05732 14.0232 8.49682C14.0232 7.93631 13.8882 7.40618 13.6518 7.03583L13.6511 7.03473C13.4429 6.70678 13.2144 6.39535 12.977 6.1002C12.8039 5.88502 12.838 5.57028 13.0532 5.39721Z" fill="#2671D9"/>
<path fill-rule="evenodd" clip-rule="evenodd" d="M10.4306 8.47511C10.7021 8.52518 10.8817 8.78592 10.8316 9.05749C10.6207 10.2014 9.69447 11.1276 8.55057 11.3385C8.279 11.3886 8.01826 11.2091 7.96818 10.9375C7.91811 10.6659 8.09766 10.4052 8.36923 10.3551C9.10532 10.2194 9.71245 9.61225 9.84819 8.87615C9.89826 8.60458 10.159 8.42503 10.4306 8.47511Z" fill="#2671D9"/>
<path fill-rule="evenodd" clip-rule="evenodd" d="M6.35345 10.1466C6.54871 10.3419 6.54871 10.6584 6.35345 10.8537L3.02012 14.187C2.82485 14.3823 2.50827 14.3823 2.31301 14.187C2.11775 13.9918 2.11775 13.6752 2.31301 13.4799L5.64634 10.1466C5.8416 9.95133 6.15819 9.95133 6.35345 10.1466Z" fill="#2671D9"/>
<path fill-rule="evenodd" clip-rule="evenodd" d="M13.6868 2.81326C13.882 3.00853 13.882 3.32511 13.6868 3.52037L10.3534 6.8537C10.1582 7.04897 9.84161 7.04897 9.64634 6.8537C9.45108 6.65844 9.45108 6.34186 9.64634 6.1466L12.9797 2.81326C13.1749 2.618 13.4915 2.618 13.6868 2.81326Z" fill="#2671D9"/>
</svg>
