<svg width="15" height="19" viewBox="0 0 15 19" fill="none" xmlns="http://www.w3.org/2000/svg">
<path d="M15 6.63125C14.9902 6.54513 14.9714 6.46028 14.9437 6.37813V6.29375C14.8987 6.19736 14.8385 6.10875 14.7656 6.03125L9.14062 0.40625C9.06313 0.333328 8.97452 0.273201 8.87812 0.228125H8.79375C8.69851 0.173507 8.59333 0.138448 8.48437 0.125H2.8125C2.06658 0.125 1.35121 0.421316 0.823762 0.948762C0.296316 1.47621 0 2.19158 0 2.9375V16.0625C0 16.8084 0.296316 17.5238 0.823762 18.0512C1.35121 18.5787 2.06658 18.875 2.8125 18.875H12.1875C12.9334 18.875 13.6488 18.5787 14.1762 18.0512C14.7037 17.5238 15 16.8084 15 16.0625V6.6875V6.63125ZM9.375 3.32187L11.8031 5.75H10.3125C10.0639 5.75 9.8254 5.65123 9.64959 5.47541C9.47377 5.2996 9.375 5.06114 9.375 4.8125V3.32187ZM13.125 16.0625C13.125 16.3111 13.0262 16.5496 12.8504 16.7254C12.6746 16.9012 12.4361 17 12.1875 17H2.8125C2.56386 17 2.3254 16.9012 2.14959 16.7254C1.97377 16.5496 1.875 16.3111 1.875 16.0625V2.9375C1.875 2.68886 1.97377 2.4504 2.14959 2.27459C2.3254 2.09877 2.56386 2 2.8125 2H7.5V4.8125C7.5 5.55842 7.79632 6.27379 8.32376 6.80124C8.85121 7.32868 9.56658 7.625 10.3125 7.625H13.125V16.0625Z" fill="#2671D9"/>
</svg>
