<svg width="15" height="15" viewBox="0 0 15 15" fill="none" xmlns="http://www.w3.org/2000/svg">
<path d="M12.4206 5.70885C12.4143 5.65309 12.4021 5.59817 12.3842 5.54499V5.49037C12.355 5.42797 12.3161 5.37061 12.2689 5.32044L8.62757 1.67914C8.5774 1.63193 8.52004 1.59301 8.45764 1.56383H8.40302C8.34137 1.52847 8.27328 1.50578 8.20275 1.49707H4.5311C4.04823 1.49707 3.58514 1.68889 3.24371 2.03033C2.90227 2.37177 2.71045 2.83486 2.71045 3.31772V11.8141C2.71045 12.297 2.90227 12.7601 3.24371 13.1015C3.58514 13.4429 4.04823 13.6348 4.5311 13.6348H10.5999C11.0828 13.6348 11.5459 13.4429 11.8873 13.1015C12.2288 12.7601 12.4206 12.297 12.4206 11.8141V5.74526V5.70885ZM8.77929 3.56654L10.3511 5.13837H9.38617C9.22522 5.13837 9.07085 5.07443 8.95704 4.96062C8.84323 4.84681 8.77929 4.69245 8.77929 4.53149V3.56654ZM11.2068 11.8141C11.2068 11.9751 11.1429 12.1294 11.0291 12.2432C10.9153 12.357 10.7609 12.421 10.5999 12.421H4.5311C4.37015 12.421 4.21578 12.357 4.10197 12.2432C3.98816 12.1294 3.92422 11.9751 3.92422 11.8141V3.31772C3.92422 3.15677 3.98816 3.0024 4.10197 2.88859C4.21578 2.77478 4.37015 2.71084 4.5311 2.71084H7.56552V4.53149C7.56552 5.01436 7.75734 5.47745 8.09878 5.81889C8.44022 6.16032 8.90331 6.35214 9.38617 6.35214H11.2068V11.8141Z" fill="#0EA976"/>
</svg>
