<svg width="14" height="14" viewBox="0 0 14 14" fill="none" xmlns="http://www.w3.org/2000/svg">
<path d="M11.6668 0.333252H2.3335C1.80306 0.333252 1.29436 0.543966 0.919283 0.919038C0.54421 1.29411 0.333496 1.80282 0.333496 2.33325V3.11325C0.333401 3.38855 0.39014 3.6609 0.500163 3.91325V3.95325C0.594349 4.16723 0.727758 4.36169 0.893496 4.52659L5.00016 8.60658V12.9999C4.99994 13.1132 5.02859 13.2247 5.08341 13.3238C5.13823 13.423 5.21742 13.5065 5.3135 13.5666C5.41959 13.6323 5.54201 13.667 5.66683 13.6666C5.77119 13.666 5.87395 13.6408 5.96683 13.5933L8.6335 12.2599C8.74344 12.2045 8.83589 12.1198 8.90061 12.015C8.96533 11.9103 8.99979 11.7897 9.00016 11.6666V8.60658L13.0802 4.52659C13.2459 4.36169 13.3793 4.16723 13.4735 3.95325V3.91325C13.5927 3.66287 13.6585 3.39044 13.6668 3.11325V2.33325C13.6668 1.80282 13.4561 1.29411 13.081 0.919038C12.706 0.543966 12.1973 0.333252 11.6668 0.333252ZM7.86016 7.85992C7.79838 7.92221 7.74949 7.99609 7.71632 8.07731C7.68314 8.15854 7.66632 8.24551 7.66683 8.33325V11.2533L6.3335 11.9199V8.33325C6.334 8.24551 6.31719 8.15854 6.28401 8.07731C6.25083 7.99609 6.20195 7.92221 6.14016 7.85992L2.60683 4.33325H11.3935L7.86016 7.85992ZM12.3335 2.99992H1.66683V2.33325C1.66683 2.15644 1.73707 1.98687 1.86209 1.86185C1.98712 1.73682 2.15669 1.66659 2.3335 1.66659H11.6668C11.8436 1.66659 12.0132 1.73682 12.1382 1.86185C12.2633 1.98687 12.3335 2.15644 12.3335 2.33325V2.99992Z" fill="#2671D9"/>
</svg>
