<svg width="14" height="16" viewBox="0 0 14 16" fill="none" xmlns="http://www.w3.org/2000/svg">
<path d="M4 2.75C4 1.92157 4.67157 1.25 5.5 1.25H7C7.82843 1.25 8.5 1.92157 8.5 2.75C8.5 3.57843 7.82843 4.25 7 4.25H5.5C4.67157 4.25 4 3.57843 4 2.75Z" fill="white"/>
<path d="M4 2.75H2.5C1.67157 2.75 1 3.42157 1 4.25V13.25C1 14.0784 1.67157 14.75 2.5 14.75H10C10.8284 14.75 11.5 14.0784 11.5 13.25V12.875M4 2.75C4 3.57843 4.67157 4.25 5.5 4.25H7C7.82843 4.25 8.5 3.57843 8.5 2.75M4 2.75C4 1.92157 4.67157 1.25 5.5 1.25H7C7.82843 1.25 8.5 1.92157 8.5 2.75M8.5 2.75H10C10.8284 2.75 11.5 3.42157 11.5 4.25V5.75M6.25 9.5H12.928M12.928 9.5L10.9377 7.4375M12.928 9.5L10.9377 11.375" stroke="#2671D9" stroke-width="1.3" stroke-linecap="round" stroke-linejoin="round"/>
</svg>