<svg width="16" height="16" viewBox="0 0 16 16" fill="none" xmlns="http://www.w3.org/2000/svg">
<path d="M14.8006 1.08937L4.18235 9.93824M6.6839 12.4509L9.10754 14.8634C9.25638 15.016 9.44247 15.127 9.64741 15.1856C9.85234 15.2441 10.069 15.2482 10.276 15.1973C10.4841 15.1488 10.6762 15.0476 10.8339 14.9033C10.9915 14.7591 11.1094 14.5768 11.1762 14.3738L15.1555 2.44474C15.2388 2.22131 15.2561 1.97867 15.2054 1.7457C15.1546 1.51273 15.038 1.29923 14.8695 1.13064C14.7009 0.962042 14.4874 0.845444 14.2544 0.794725C14.0214 0.744005 13.7788 0.761301 13.5554 0.844552L1.62628 4.82499C1.41633 4.89654 1.2293 5.02287 1.08453 5.19092C0.939758 5.35897 0.842504 5.56264 0.802823 5.78087C0.761837 5.97949 0.770889 6.18519 0.829164 6.37944C0.88744 6.57369 0.993109 6.7504 1.13666 6.89366L4.18235 9.93935L4.0822 13.7963L6.6839 12.4509Z" stroke="#2671D9" stroke-width="1.3" stroke-linecap="round" stroke-linejoin="round"/>
</svg>
