<svg width="46" height="45" viewBox="0 0 46 45" fill="none" xmlns="http://www.w3.org/2000/svg">
<g filter="url(#filter0_d_1290_16355)">
<g opacity="0.4" filter="url(#filter1_d_1290_16355)">
<path d="M19 26C23.1421 26 26.5 22.6421 26.5 18.5C26.5 14.3579 23.1421 11 19 11C14.8579 11 11.5 14.3579 11.5 18.5C11.5 22.6421 14.8579 26 19 26Z" fill="#FFB200"/>
</g>
<path fill-rule="evenodd" clip-rule="evenodd" d="M21.3536 18.6464C21.5488 18.8417 21.5488 19.1583 21.3536 19.3536L18.8536 21.8536C18.6583 22.0488 18.3417 22.0488 18.1464 21.8536C17.9512 21.6583 17.9512 21.3417 18.1464 21.1464L20.2929 19L18.1464 16.8536C17.9512 16.6583 17.9512 16.3417 18.1464 16.1464C18.3417 15.9512 18.6583 15.9512 18.8536 16.1464L21.3536 18.6464Z" fill="#F08800"/>
</g>
<defs>
<filter id="filter0_d_1290_16355" x="6" y="6.5" width="26" height="26" filterUnits="userSpaceOnUse" color-interpolation-filters="sRGB">
<feFlood flood-opacity="0" result="BackgroundImageFix"/>
<feColorMatrix in="SourceAlpha" type="matrix" values="0 0 0 0 0 0 0 0 0 0 0 0 0 0 0 0 0 0 127 0" result="hardAlpha"/>
<feOffset dy="1"/>
<feGaussianBlur stdDeviation="2"/>
<feComposite in2="hardAlpha" operator="out"/>
<feColorMatrix type="matrix" values="0 0 0 0 1 0 0 0 0 0.778759 0 0 0 0 0.267318 0 0 0 1 0"/>
<feBlend mode="normal" in2="BackgroundImageFix" result="effect1_dropShadow_1290_16355"/>
<feBlend mode="normal" in="SourceGraphic" in2="effect1_dropShadow_1290_16355" result="shape"/>
</filter>
<filter id="filter1_d_1290_16355" x="0.5" y="0" width="45" height="45" filterUnits="userSpaceOnUse" color-interpolation-filters="sRGB">
<feFlood flood-opacity="0" result="BackgroundImageFix"/>
<feColorMatrix in="SourceAlpha" type="matrix" values="0 0 0 0 0 0 0 0 0 0 0 0 0 0 0 0 0 0 127 0" result="hardAlpha"/>
<feOffset dx="4" dy="4"/>
<feGaussianBlur stdDeviation="7.5"/>
<feComposite in2="hardAlpha" operator="out"/>
<feColorMatrix type="matrix" values="0 0 0 0 0.763946 0 0 0 0 0.970231 0 0 0 0 0.498223 0 0 0 0.5 0"/>
<feBlend mode="normal" in2="BackgroundImageFix" result="effect1_dropShadow_1290_16355"/>
<feBlend mode="normal" in="SourceGraphic" in2="effect1_dropShadow_1290_16355" result="shape"/>
</filter>
</defs>
</svg>
