<svg width="14" height="14" viewBox="0 0 14 14" fill="none" xmlns="http://www.w3.org/2000/svg">
<path fill-rule="evenodd" clip-rule="evenodd" d="M5.99967 1.66634C3.60644 1.66634 1.66634 3.60644 1.66634 5.99967C1.66634 8.39291 3.60644 10.333 5.99967 10.333C7.19648 10.333 8.27889 9.84871 9.0638 9.0638C9.84871 8.27889 10.333 7.19648 10.333 5.99967C10.333 3.60644 8.39291 1.66634 5.99967 1.66634ZM0.333008 5.99967C0.333008 2.87006 2.87006 0.333008 5.99967 0.333008C9.12929 0.333008 11.6663 2.87006 11.6663 5.99967C11.6663 7.32398 11.2114 8.54294 10.4503 9.50751L13.4711 12.5283C13.7314 12.7886 13.7314 13.2107 13.4711 13.4711C13.2107 13.7314 12.7886 13.7314 12.5283 13.4711L9.50751 10.4503C8.54294 11.2114 7.32398 11.6663 5.99967 11.6663C2.87006 11.6663 0.333008 9.12929 0.333008 5.99967Z" fill="#2671D9"/>
</svg>
