<svg width="14" height="14" viewBox="0 0 14 14" fill="none" xmlns="http://www.w3.org/2000/svg">
<path fill-rule="evenodd" clip-rule="evenodd" d="M6.00016 1.66634C3.60693 1.66634 1.66683 3.60644 1.66683 5.99967C1.66683 8.39291 3.60693 10.333 6.00016 10.333C7.19696 10.333 8.27938 9.84871 9.06429 9.0638C9.8492 8.27889 10.3335 7.19648 10.3335 5.99967C10.3335 3.60644 8.3934 1.66634 6.00016 1.66634ZM0.333496 5.99967C0.333496 2.87006 2.87055 0.333008 6.00016 0.333008C9.12978 0.333008 11.6668 2.87006 11.6668 5.99967C11.6668 7.32398 11.2119 8.54294 10.4508 9.50751L13.4716 12.5283C13.7319 12.7886 13.7319 13.2107 13.4716 13.4711C13.2112 13.7314 12.7891 13.7314 12.5288 13.4711L9.508 10.4503C8.54343 11.2114 7.32447 11.6663 6.00016 11.6663C2.87055 11.6663 0.333496 9.12929 0.333496 5.99967Z" fill="white"/>
</svg>
