<svg width="2" height="8" viewBox="0 0 2 8" fill="none" xmlns="http://www.w3.org/2000/svg">
<path d="M1 1.8125C0.91712 1.8125 0.837634 1.77958 0.779029 1.72097C0.720424 1.66237 0.6875 1.58288 0.6875 1.5C0.6875 1.41712 0.720424 1.33763 0.779029 1.27903C0.837634 1.22042 0.91712 1.1875 1 1.1875C1.08288 1.1875 1.16237 1.22042 1.22097 1.27903C1.27958 1.33763 1.3125 1.41712 1.3125 1.5C1.3125 1.58288 1.27958 1.66237 1.22097 1.72097C1.16237 1.77958 1.08288 1.8125 1 1.8125ZM1 4.3125C0.91712 4.3125 0.837634 4.27958 0.779029 4.22097C0.720424 4.16237 0.6875 4.08288 0.6875 4C0.6875 3.91712 0.720424 3.83763 0.779029 3.77903C0.837634 3.72042 0.91712 3.6875 1 3.6875C1.08288 3.6875 1.16237 3.72042 1.22097 3.77903C1.27958 3.83763 1.3125 3.91712 1.3125 4C1.3125 4.08288 1.27958 4.16237 1.22097 4.22097C1.16237 4.27958 1.08288 4.3125 1 4.3125ZM1 6.8125C0.91712 6.8125 0.837634 6.77958 0.779029 6.72097C0.720424 6.66237 0.6875 6.58288 0.6875 6.5C0.6875 6.41712 0.720424 6.33763 0.779029 6.27903C0.837634 6.22042 0.91712 6.1875 1 6.1875C1.08288 6.1875 1.16237 6.22042 1.22097 6.27903C1.27958 6.33763 1.3125 6.41712 1.3125 6.5C1.3125 6.58288 1.27958 6.66237 1.22097 6.72097C1.16237 6.77958 1.08288 6.8125 1 6.8125Z" stroke="#333333" stroke-linecap="round" stroke-linejoin="round"/>
</svg>
