<svg width="59" height="60" viewBox="0 0 59 60" fill="none" xmlns="http://www.w3.org/2000/svg">
<path d="M-0.00113803 30C-0.00113661 13.4315 13.2065 -2.7584e-07 29.4989 1.17952e-06C45.7914 2.63489e-06 58.999 13.4315 58.999 30C58.999 46.5685 45.7914 60 29.4989 60C13.2065 60 -0.00113945 46.5685 -0.00113803 30ZM49.323 30C49.323 18.8659 40.4475 9.84 29.4989 9.84C18.5504 9.84 9.67489 18.8659 9.67489 30C9.67489 41.1341 18.5504 50.16 29.4989 50.16C40.4475 50.16 49.323 41.1341 49.323 30Z" fill="#E0E0E0"/>
<path d="M42.9567 50.9261C44.4351 53.225 47.5442 53.8929 49.5347 52.0198C51.7956 49.8925 53.7224 47.411 55.2375 44.6601C57.5603 40.4426 58.8466 35.7167 58.9868 30.8848C59.127 26.0529 58.117 21.2582 56.0427 16.9087C54.6889 14.0699 52.9078 11.4757 50.7724 9.21542C48.8963 7.22952 45.7545 7.71268 44.1446 9.91998C42.5709 12.0777 43.079 15.07 44.7655 17.1406C45.7756 18.3807 46.6395 19.7438 47.3355 21.2032C48.7294 24.1258 49.4081 27.3477 49.3139 30.5946C49.2196 33.8414 48.3553 37.017 46.7944 39.851C46.0171 41.2624 45.0785 42.5682 44.0018 43.7432C42.195 45.7149 41.5101 48.6767 42.9567 50.9261Z" fill="#FFA229"/>
<path d="M16.1996 33V32.2045L18.6605 29.6548C18.9233 29.3778 19.1399 29.1352 19.3104 28.9268C19.4832 28.7161 19.6122 28.5161 19.6974 28.3267C19.7827 28.1373 19.8253 27.9361 19.8253 27.723C19.8253 27.4815 19.7685 27.2732 19.6548 27.098C19.5412 26.9205 19.3861 26.7843 19.1896 26.6896C18.9931 26.5926 18.7718 26.544 18.5256 26.544C18.2652 26.544 18.0379 26.5973 17.8438 26.7038C17.6496 26.8104 17.5005 26.9607 17.3963 27.1548C17.2921 27.349 17.2401 27.5762 17.2401 27.8366H16.1925C16.1925 27.3939 16.2943 27.0069 16.4979 26.6754C16.7015 26.344 16.9808 26.0871 17.3359 25.9048C17.6911 25.7202 18.0947 25.6278 18.5469 25.6278C19.0038 25.6278 19.4063 25.719 19.7543 25.9013C20.1046 26.0812 20.3781 26.3274 20.5746 26.6399C20.7711 26.95 20.8693 27.3004 20.8693 27.6911C20.8693 27.9609 20.8184 28.2249 20.7166 28.483C20.6172 28.741 20.4432 29.0286 20.1946 29.3459C19.946 29.6607 19.6004 30.0431 19.1577 30.4929L17.7124 32.0057V32.0589H20.9865V33H16.1996ZM22.5234 31.5795V30.6918L25.6662 25.7273H26.3658V27.0341H25.9219L23.674 30.5923V30.6491H27.9815V31.5795H22.5234ZM25.9716 33V31.3097L25.9787 30.9048V25.7273H27.0192V33H25.9716Z" fill="black"/>
<path d="M32.1705 26.4091L30.2955 33.375H29.6818L31.5568 26.4091H32.1705ZM35.3857 32.5795C35.147 32.5758 34.9084 32.5303 34.6697 32.4432C34.4311 32.3561 34.2133 32.2093 34.0163 32.0028C33.8194 31.7945 33.6612 31.5133 33.5419 31.1591C33.4226 30.803 33.3629 30.3561 33.3629 29.8182C33.3629 29.303 33.4112 28.8466 33.5078 28.4489C33.6044 28.0492 33.7446 27.7131 33.9283 27.4403C34.112 27.1657 34.3336 26.9574 34.593 26.8153C34.8544 26.6733 35.1489 26.6023 35.4766 26.6023C35.8023 26.6023 36.0921 26.6676 36.3459 26.7983C36.6016 26.9271 36.8099 27.107 36.9709 27.3381C37.1319 27.5691 37.236 27.8352 37.2834 28.1364H36.5902C36.5258 27.875 36.4008 27.6581 36.2152 27.4858C36.0296 27.3134 35.7834 27.2273 35.4766 27.2273C35.0258 27.2273 34.6707 27.4233 34.4112 27.8153C34.1536 28.2074 34.0239 28.7576 34.022 29.4659H34.0675C34.1735 29.3049 34.2995 29.1676 34.4453 29.054C34.593 28.9384 34.7559 28.8494 34.9339 28.7869C35.112 28.7244 35.3004 28.6932 35.4993 28.6932C35.8326 28.6932 36.1375 28.7765 36.4141 28.9432C36.6906 29.108 36.9122 29.3362 37.0788 29.6278C37.2455 29.9176 37.3288 30.25 37.3288 30.625C37.3288 30.9848 37.2483 31.3144 37.0874 31.6136C36.9264 31.911 36.7 32.1477 36.4084 32.3239C36.1186 32.4981 35.7777 32.5833 35.3857 32.5795ZM35.3857 31.9545C35.6243 31.9545 35.8383 31.8949 36.0277 31.7756C36.219 31.6562 36.3696 31.4962 36.4794 31.2955C36.5911 31.0947 36.647 30.8712 36.647 30.625C36.647 30.3845 36.593 30.1657 36.4851 29.9688C36.379 29.7699 36.2322 29.6117 36.0447 29.4943C35.8591 29.3769 35.647 29.3182 35.4084 29.3182C35.2285 29.3182 35.0608 29.3542 34.9055 29.4261C34.7502 29.4962 34.6139 29.5928 34.4964 29.7159C34.3809 29.839 34.29 29.9801 34.2237 30.1392C34.1574 30.2964 34.1243 30.4621 34.1243 30.6364C34.1243 30.8674 34.1783 31.0833 34.2862 31.2841C34.3961 31.4848 34.5457 31.6468 34.7351 31.7699C34.9264 31.893 35.1432 31.9545 35.3857 31.9545ZM38.8097 31.3068V30.7273L41.3665 26.6818H41.7869V27.5795H41.5028L39.571 30.6364V30.6818H43.0142V31.3068H38.8097ZM41.5483 32.5V31.1307V30.8608V26.6818H42.2188V32.5H41.5483Z" fill="#9C9C9C"/>
</svg>
