<svg width="59" height="60" viewBox="0 0 59 60" fill="none" xmlns="http://www.w3.org/2000/svg">
<path d="M5.33949 35.1994C2.73806 35.7593 1.03965 38.3349 1.98562 40.8221C3.58651 45.0312 6.10864 48.8391 9.38453 51.9445C13.8209 56.15 19.4241 58.8628 25.4311 59.7133C31.438 60.5639 37.5568 59.511 42.9542 56.698C48.3516 53.8849 52.7652 49.4485 55.594 43.9928C58.4229 38.5371 59.5294 32.3273 58.763 26.2091C57.9966 20.0908 55.3945 14.3615 51.3111 9.80121C47.2276 5.24097 41.8612 2.07147 35.9428 0.72434C31.6076 -0.2624 27.1306 -0.236281 22.8426 0.773755C20.2264 1.39 19.0496 4.27598 20.0612 6.76615C21.0899 9.29844 23.9977 10.4336 26.7027 10.0416C29.0624 9.69969 31.477 9.79132 33.8294 10.3268C37.8066 11.232 41.4128 13.3619 44.1569 16.4264C46.9009 19.4909 48.6496 23.341 49.1646 27.4525C49.6796 31.564 48.936 35.7369 47.035 39.4032C45.134 43.0694 42.1681 46.0507 38.541 47.941C34.914 49.8314 30.8022 50.539 26.7655 49.9674C22.7288 49.3958 18.9635 47.5728 15.9822 44.7467C14.1799 43.0382 12.7171 41.0133 11.6556 38.783C10.501 36.357 7.96609 34.6341 5.33949 35.1994Z" fill="#E0E0E0"/>
<path d="M46.9955 12.2077C48.8624 10.3092 48.8827 7.22479 46.7341 5.652C42.1362 2.2862 36.6518 0.317012 30.9262 0.0351221C23.6042 -0.325365 16.4125 2.09937 10.7526 6.83683C5.0926 11.5743 1.36984 18.2851 0.309712 25.6615C-0.611118 32.0687 0.534243 38.5794 3.53145 44.234C4.38331 45.8412 6.11219 46.7381 7.93114 46.7381C12.0075 46.7381 14.6694 42.3793 13.067 38.631C11.2457 34.3707 9.53284 29.5363 9.88518 27.0847C10.5975 22.1281 13.0991 17.6187 16.9024 14.4353C20.7056 11.2519 25.5382 9.62257 30.4582 9.8648C33.722 10.0255 36.8692 11.0021 39.635 12.6754C41.968 14.0868 45.0837 14.152 46.9955 12.2077Z" fill="#0EA976"/>
<path d="M19.9588 26.7273V34H18.858V27.8281H18.8153L17.0753 28.9645V27.9134L18.8899 26.7273H19.9588ZM24.9581 34.1207C24.397 34.1184 23.9176 33.9704 23.5199 33.6768C23.1222 33.3833 22.8179 32.956 22.6072 32.3949C22.3965 31.8338 22.2912 31.1579 22.2912 30.3672C22.2912 29.5788 22.3965 28.9053 22.6072 28.3466C22.8203 27.7879 23.1257 27.3617 23.5234 27.0682C23.9235 26.7746 24.4018 26.6278 24.9581 26.6278C25.5144 26.6278 25.9915 26.7758 26.3892 27.0717C26.7869 27.3653 27.0911 27.7914 27.3018 28.3501C27.5149 28.9065 27.6214 29.5788 27.6214 30.3672C27.6214 31.1603 27.5161 31.8374 27.3054 32.3984C27.0947 32.9571 26.7905 33.3845 26.3928 33.6804C25.995 33.974 25.5168 34.1207 24.9581 34.1207ZM24.9581 33.1726C25.4505 33.1726 25.8352 32.9323 26.1122 32.4517C26.3916 31.9711 26.5312 31.2763 26.5312 30.3672C26.5312 29.7635 26.4673 29.2533 26.3395 28.8366C26.214 28.4176 26.0329 28.1004 25.7962 27.8849C25.5618 27.6671 25.2824 27.5582 24.9581 27.5582C24.468 27.5582 24.0833 27.7997 23.804 28.2827C23.5246 28.7656 23.3838 29.4605 23.3814 30.3672C23.3814 30.9732 23.4441 31.4858 23.5696 31.9048C23.6974 32.3215 23.8786 32.6375 24.1129 32.853C24.3473 33.0661 24.629 33.1726 24.9581 33.1726Z" fill="black"/>
<path d="M31.1705 27.4091L29.2955 34.375H28.6818L30.5568 27.4091H31.1705ZM34.3857 33.5795C34.147 33.5758 33.9084 33.5303 33.6697 33.4432C33.4311 33.3561 33.2133 33.2093 33.0163 33.0028C32.8194 32.7945 32.6612 32.5133 32.5419 32.1591C32.4226 31.803 32.3629 31.3561 32.3629 30.8182C32.3629 30.303 32.4112 29.8466 32.5078 29.4489C32.6044 29.0492 32.7446 28.7131 32.9283 28.4403C33.112 28.1657 33.3336 27.9574 33.593 27.8153C33.8544 27.6733 34.1489 27.6023 34.4766 27.6023C34.8023 27.6023 35.0921 27.6676 35.3459 27.7983C35.6016 27.9271 35.8099 28.107 35.9709 28.3381C36.1319 28.5691 36.236 28.8352 36.2834 29.1364H35.5902C35.5258 28.875 35.4008 28.6581 35.2152 28.4858C35.0296 28.3134 34.7834 28.2273 34.4766 28.2273C34.0258 28.2273 33.6707 28.4233 33.4112 28.8153C33.1536 29.2074 33.0239 29.7576 33.022 30.4659H33.0675C33.1735 30.3049 33.2995 30.1676 33.4453 30.054C33.593 29.9384 33.7559 29.8494 33.9339 29.7869C34.112 29.7244 34.3004 29.6932 34.4993 29.6932C34.8326 29.6932 35.1375 29.7765 35.4141 29.9432C35.6906 30.108 35.9122 30.3362 36.0788 30.6278C36.2455 30.9176 36.3288 31.25 36.3288 31.625C36.3288 31.9848 36.2483 32.3144 36.0874 32.6136C35.9264 32.911 35.7 33.1477 35.4084 33.3239C35.1186 33.4981 34.7777 33.5833 34.3857 33.5795ZM34.3857 32.9545C34.6243 32.9545 34.8383 32.8949 35.0277 32.7756C35.219 32.6562 35.3696 32.4962 35.4794 32.2955C35.5911 32.0947 35.647 31.8712 35.647 31.625C35.647 31.3845 35.593 31.1657 35.4851 30.9688C35.379 30.7699 35.2322 30.6117 35.0447 30.4943C34.8591 30.3769 34.647 30.3182 34.4084 30.3182C34.2285 30.3182 34.0608 30.3542 33.9055 30.4261C33.7502 30.4962 33.6139 30.5928 33.4964 30.7159C33.3809 30.839 33.29 30.9801 33.2237 31.1392C33.1574 31.2964 33.1243 31.4621 33.1243 31.6364C33.1243 31.8674 33.1783 32.0833 33.2862 32.2841C33.3961 32.4848 33.5457 32.6468 33.7351 32.7699C33.9264 32.893 34.1432 32.9545 34.3857 32.9545ZM37.8097 32.3068V31.7273L40.3665 27.6818H40.7869V28.5795H40.5028L38.571 31.6364V31.6818H42.0142V32.3068H37.8097ZM40.5483 33.5V32.1307V31.8608V27.6818H41.2188V33.5H40.5483Z" fill="#9C9C9C"/>
</svg>
