<svg width="59" height="60" viewBox="0 0 59 60" fill="none" xmlns="http://www.w3.org/2000/svg">
<path d="M-0.00113803 30C-0.00113661 13.4315 13.2065 -2.7584e-07 29.4989 1.17952e-06C45.7914 2.63489e-06 58.999 13.4315 58.999 30C58.999 46.5685 45.7914 60 29.4989 60C13.2065 60 -0.00113945 46.5685 -0.00113803 30ZM49.323 30C49.323 18.8659 40.4475 9.84 29.4989 9.84C18.5504 9.84 9.67489 18.8659 9.67489 30C9.67489 41.1341 18.5504 50.16 29.4989 50.16C40.4475 50.16 49.323 41.1341 49.323 30Z" fill="#E0E0E0"/>
<path d="M6.10616 22.2173C3.54861 21.3665 0.747116 22.7672 0.343413 25.4322C-0.449354 30.6655 0.130087 36.0503 2.06519 41.0285C4.59426 47.5348 9.27988 52.9377 15.3116 56.3025C21.3433 59.6673 28.3417 60.7825 35.0964 59.4551C40.2872 58.4351 45.0831 56.022 49.0065 52.5051C50.9864 50.7303 50.6648 47.6671 48.6236 45.9632C46.5342 44.2191 43.4458 44.5878 41.2688 46.2213C38.9103 47.9909 36.1782 49.2193 33.2604 49.7927C28.7216 50.6846 24.0189 49.9352 19.9658 47.6742C15.9127 45.4132 12.7642 41.7827 11.0648 37.4107C9.94863 34.5393 9.50366 31.4667 9.7369 28.4299C9.94043 25.78 8.62805 23.0563 6.10616 22.2173Z" fill="#FF51AF"/>
<path d="M18.7315 34.0994C18.2438 34.0994 17.8082 34.0154 17.4247 33.8473C17.0436 33.6792 16.7417 33.446 16.5192 33.1477C16.299 32.8471 16.1806 32.4991 16.1641 32.1037H17.2791C17.2933 32.3191 17.3655 32.5062 17.4957 32.6648C17.6283 32.821 17.8011 32.9418 18.0142 33.027C18.2273 33.1122 18.464 33.1548 18.7244 33.1548C19.0109 33.1548 19.2642 33.1051 19.4844 33.0057C19.7069 32.9062 19.8809 32.7678 20.0064 32.5902C20.1319 32.4103 20.1946 32.2031 20.1946 31.9688C20.1946 31.7249 20.1319 31.5107 20.0064 31.326C19.8833 31.139 19.7022 30.9922 19.4631 30.8857C19.2263 30.7791 18.9399 30.7259 18.6037 30.7259H17.9893V29.831H18.6037C18.8736 29.831 19.1103 29.7824 19.3139 29.6854C19.5199 29.5883 19.6809 29.4534 19.7969 29.2805C19.9129 29.1054 19.9709 28.9006 19.9709 28.6662C19.9709 28.4413 19.92 28.246 19.8182 28.0803C19.7188 27.9122 19.5767 27.7808 19.392 27.6861C19.2098 27.5914 18.9943 27.544 18.7457 27.544C18.509 27.544 18.2876 27.5878 18.0817 27.6754C17.8781 27.7607 17.7124 27.8838 17.5845 28.0447C17.4567 28.2034 17.388 28.3939 17.3786 28.6165H16.3168C16.3286 28.2235 16.4446 27.8778 16.6648 27.5795C16.8873 27.2812 17.1809 27.0481 17.5455 26.88C17.91 26.7119 18.3149 26.6278 18.7599 26.6278C19.2263 26.6278 19.6288 26.719 19.9673 26.9013C20.3082 27.0812 20.571 27.3215 20.7557 27.6222C20.9427 27.9228 21.035 28.2519 21.0327 28.6094C21.035 29.0166 20.9214 29.3622 20.6918 29.6463C20.4645 29.9304 20.1615 30.121 19.7827 30.218V30.2749C20.2656 30.3482 20.6397 30.54 20.9048 30.8501C21.1723 31.1603 21.3049 31.545 21.3026 32.0043C21.3049 32.4044 21.1937 32.763 20.9688 33.0803C20.7462 33.3975 20.442 33.6473 20.0561 33.8295C19.6702 34.0095 19.2287 34.0994 18.7315 34.0994ZM25.6768 34.1207C25.1158 34.1184 24.6364 33.9704 24.2386 33.6768C23.8409 33.3833 23.5367 32.956 23.326 32.3949C23.1153 31.8338 23.0099 31.1579 23.0099 30.3672C23.0099 29.5788 23.1153 28.9053 23.326 28.3466C23.5391 27.7879 23.8445 27.3617 24.2422 27.0682C24.6423 26.7746 25.1205 26.6278 25.6768 26.6278C26.2332 26.6278 26.7102 26.7758 27.108 27.0717C27.5057 27.3653 27.8099 27.7914 28.0206 28.3501C28.2337 28.9065 28.3402 29.5788 28.3402 30.3672C28.3402 31.1603 28.2348 31.8374 28.0241 32.3984C27.8134 32.9571 27.5092 33.3845 27.1115 33.6804C26.7138 33.974 26.2356 34.1207 25.6768 34.1207ZM25.6768 33.1726C26.1693 33.1726 26.554 32.9323 26.831 32.4517C27.1103 31.9711 27.25 31.2763 27.25 30.3672C27.25 29.7635 27.1861 29.2533 27.0582 28.8366C26.9328 28.4176 26.7517 28.1004 26.5149 27.8849C26.2805 27.6671 26.0012 27.5582 25.6768 27.5582C25.1868 27.5582 24.8021 27.7997 24.5227 28.2827C24.2434 28.7656 24.1025 29.4605 24.1001 30.3672C24.1001 30.9732 24.1629 31.4858 24.2884 31.9048C24.4162 32.3215 24.5973 32.6375 24.8317 32.853C25.0661 33.0661 25.3478 33.1726 25.6768 33.1726Z" fill="black"/>
<path d="M32.1705 27.4091L30.2955 34.375H29.6818L31.5568 27.4091H32.1705ZM35.3857 33.5795C35.147 33.5758 34.9084 33.5303 34.6697 33.4432C34.4311 33.3561 34.2133 33.2093 34.0163 33.0028C33.8194 32.7945 33.6612 32.5133 33.5419 32.1591C33.4226 31.803 33.3629 31.3561 33.3629 30.8182C33.3629 30.303 33.4112 29.8466 33.5078 29.4489C33.6044 29.0492 33.7446 28.7131 33.9283 28.4403C34.112 28.1657 34.3336 27.9574 34.593 27.8153C34.8544 27.6733 35.1489 27.6023 35.4766 27.6023C35.8023 27.6023 36.0921 27.6676 36.3459 27.7983C36.6016 27.9271 36.8099 28.107 36.9709 28.3381C37.1319 28.5691 37.236 28.8352 37.2834 29.1364H36.5902C36.5258 28.875 36.4008 28.6581 36.2152 28.4858C36.0296 28.3134 35.7834 28.2273 35.4766 28.2273C35.0258 28.2273 34.6707 28.4233 34.4112 28.8153C34.1536 29.2074 34.0239 29.7576 34.022 30.4659H34.0675C34.1735 30.3049 34.2995 30.1676 34.4453 30.054C34.593 29.9384 34.7559 29.8494 34.9339 29.7869C35.112 29.7244 35.3004 29.6932 35.4993 29.6932C35.8326 29.6932 36.1375 29.7765 36.4141 29.9432C36.6906 30.108 36.9122 30.3362 37.0788 30.6278C37.2455 30.9176 37.3288 31.25 37.3288 31.625C37.3288 31.9848 37.2483 32.3144 37.0874 32.6136C36.9264 32.911 36.7 33.1477 36.4084 33.3239C36.1186 33.4981 35.7777 33.5833 35.3857 33.5795ZM35.3857 32.9545C35.6243 32.9545 35.8383 32.8949 36.0277 32.7756C36.219 32.6562 36.3696 32.4962 36.4794 32.2955C36.5911 32.0947 36.647 31.8712 36.647 31.625C36.647 31.3845 36.593 31.1657 36.4851 30.9688C36.379 30.7699 36.2322 30.6117 36.0447 30.4943C35.8591 30.3769 35.647 30.3182 35.4084 30.3182C35.2285 30.3182 35.0608 30.3542 34.9055 30.4261C34.7502 30.4962 34.6139 30.5928 34.4964 30.7159C34.3809 30.839 34.29 30.9801 34.2237 31.1392C34.1574 31.2964 34.1243 31.4621 34.1243 31.6364C34.1243 31.8674 34.1783 32.0833 34.2862 32.2841C34.3961 32.4848 34.5457 32.6468 34.7351 32.7699C34.9264 32.893 35.1432 32.9545 35.3857 32.9545ZM38.8097 32.3068V31.7273L41.3665 27.6818H41.7869V28.5795H41.5028L39.571 31.6364V31.6818H43.0142V32.3068H38.8097ZM41.5483 33.5V32.1307V31.8608V27.6818H42.2188V33.5H41.5483Z" fill="#9C9C9C"/>
</svg>
